<?xml version="1.0" encoding="UTF-8" standalone="no"?>
<svg
   xmlns:dc="http://purl.org/dc/elements/1.1/"
   xmlns:cc="http://creativecommons.org/ns#"
   xmlns:rdf="http://www.w3.org/1999/02/22-rdf-syntax-ns#"
   xmlns:svg="http://www.w3.org/2000/svg"
   xmlns="http://www.w3.org/2000/svg"
   xmlns:sodipodi="http://sodipodi.sourceforge.net/DTD/sodipodi-0.dtd"
   xmlns:inkscape="http://www.inkscape.org/namespaces/inkscape"
   version="1.1"
   id="svg2"
   width="306.66666"
   height="118.66667"
   viewBox="0 0 306.66666 118.66667"
   sodipodi:docname="logoVETOR.svg"
   inkscape:version="1.0.2-2 (e86c870879, 2021-01-15)">
  <metadata
     id="metadata8">
    <rdf:RDF>
      <cc:Work
         rdf:about="">
        <dc:format>image/svg+xml</dc:format>
        <dc:type
           rdf:resource="http://purl.org/dc/dcmitype/StillImage" />
        <dc:title />
      </cc:Work>
    </rdf:RDF>
  </metadata>
  <defs
     id="defs6" />
  <sodipodi:namedview
     pagecolor="#ffffff"
     bordercolor="#666666"
     borderopacity="1"
     objecttolerance="10"
     gridtolerance="10"
     guidetolerance="10"
     inkscape:pageopacity="0"
     inkscape:pageshadow="2"
     inkscape:window-width="1366"
     inkscape:window-height="705"
     id="namedview4"
     showgrid="false"
     showguides="false"
     inkscape:zoom="1.4597056"
     inkscape:cx="120.56739"
     inkscape:cy="62.693049"
     inkscape:window-x="-8"
     inkscape:window-y="-8"
     inkscape:window-maximized="1"
     inkscape:current-layer="g10"
     inkscape:document-rotation="0" />
  <g
     inkscape:groupmode="layer"
     inkscape:label="Image"
     id="g10">
    <path
       style="fill:#00c700;stroke:#00c700;stroke-width:1px;stroke-linecap:butt;stroke-linejoin:miter;stroke-opacity:1;fill-opacity:0.89803922"
       d="M 50.053332,21.867961 C 52.998248,25.542906 40.287726,39.685982 35.960129,44.709902 34.355595,46.945973 22.701389,38.718051 15.064595,34.987184 22.762193,23.653964 28.422467,15.840805 29.88699,13.120259 30.608359,11.78022 42.129533,11.979896 50.053332,21.867961 Z"
       id="path14"
       sodipodi:nodetypes="sccss" />
    <path
       style="fill:#00c700;stroke:#00c700;stroke-width:1px;stroke-linecap:butt;stroke-linejoin:miter;stroke-opacity:1;fill-opacity:0.89803922"
       d="m 36.650485,11.165049 c 0,0 9.315404,4.04798 12.864078,7.524271 4.202823,4.117098 9.223301,15.048544 9.223301,15.048544 l -6.31068,3.883495 22.815534,2.669903 8.495146,-20.145631 -5.582524,3.15534 c -0.439934,-0.219967 -4.227249,-11.938183 -8.252427,-12.135922 -10.958826,-0.538358 -33.311646,0.207263 -33.252428,0 z"
       id="path16"
       sodipodi:nodetypes="cacccccsc" />
    <path
       style="fill:#00c700;stroke:#00c700;stroke-width:1px;stroke-linecap:butt;stroke-linejoin:miter;stroke-opacity:1;fill-opacity:0.89803922"
       d="M 67.718447,50.728155 87.135923,38.834952 c -0.06216,-0.02486 9.349508,10.100789 13.106797,19.660194 0.94423,2.402342 -0.411994,5.953504 -1.699031,6.796116 -4.399834,2.880536 -13.349514,9.223301 -13.349514,9.223301 z"
       id="path18"
       sodipodi:nodetypes="ccsscc" />
    <path
       style="fill:#00c700;stroke:#00c700;stroke-width:1px;stroke-linecap:butt;stroke-linejoin:miter;stroke-opacity:1;fill-opacity:0.89803922"
       d="m 98.786408,68.68932 c 0,0 -6.660099,5.41846 -10.679612,6.553398 -6.540397,1.846727 -20.388349,0 -20.388349,0 L 66.747573,68.203883 54.368932,86.165049 67.718447,104.12621 v -6.796113 c 0,0 9.654773,1.234585 13.834951,-0.728155 2.591322,-1.216716 4.172051,-3.973522 5.825243,-6.31068 C 92.081108,83.643269 98.786408,68.68932 98.786408,68.68932 Z"
       id="path20"
       sodipodi:nodetypes="cacccccaac" />
    <path
       style="fill:#00c700;stroke:#00c700;stroke-width:1px;stroke-linecap:butt;stroke-linejoin:miter;stroke-opacity:1;fill-opacity:0.89803922"
       d="M 8.0097087,50.970874 1.6990291,45.38835 H 24.757282 l 10.194174,18.446601 -7.524272,-2.669902 -5.097087,6.553398 c 1.063818,1.747181 4.622699,4.736752 5.097087,4.126213 0,0 -10.933159,1.807329 -15.776698,-0.242718 C 8.7001518,70.353202 6.2132441,67.70708 4.8543689,64.805825 3.7172454,62.378019 3.4663971,59.394566 4.1262136,56.796117 4.700573,54.53421 8.0097087,50.970874 8.0097087,50.970874 Z"
       id="path22"
       sodipodi:nodetypes="cccccccaaac" />
    <path
       style="fill:#00c700;stroke:#00c700;stroke-width:1px;stroke-linecap:butt;stroke-linejoin:miter;stroke-opacity:1;fill-opacity:0.89803922"
       d="M 6.0679612,70.145631 21.601942,96.84466 49.514563,97.087379 49.757282,74.029126 c -8.83e-4,-0.0053 -27.002019,-0.910627 -38.349515,-0.485437 -2.1082945,0.079 -5.3398058,-3.398058 -5.3398058,-3.398058 z"
       id="path24"
       sodipodi:nodetypes="ccccsc" />
    <path
       style="fill:none;stroke:#000000;stroke-width:1px;stroke-linecap:butt;stroke-linejoin:miter;stroke-opacity:1"
       d="m 42.250188,50.259897 c 1.219237,-4.211393 6.280554,-8.538812 10.419715,-8.026887 7.891112,0.975961 9.778178,5.910808 10.679612,10.92233 0.705322,3.921237 -4.854369,10.937661 -4.854369,10.92233 l -0.728156,7.76699 -9.708738,0.242719 c 0,0 -0.135509,-5.44676 -0.485437,-7.281553 -3.047553,-3.171589 -6.758418,-9.586528 -5.322627,-14.545929 z"
       id="path26"
       sodipodi:nodetypes="asacccca" />
    <path
       style="fill:none;stroke:#000000;stroke-width:1px;stroke-linecap:butt;stroke-linejoin:miter;stroke-opacity:1"
       d="M 47.572815,64.805826 C 45.54145,64.09946 54.968684,67.747365 58.495146,64.07767 l -0.728156,7.76699 -9.708738,0.242719 z"
       id="path28"
       sodipodi:nodetypes="ccccc" />
    <ellipse
       style="fill:#f9f800;fill-opacity:0.95686269;stroke:#f7f700;stroke-width:0.943438;stroke-opacity:0.76078433"
       id="path903"
       cx="52.769672"
       cy="53.515007"
       rx="8.2760258"
       ry="8.4250927" />
    <path
       style="fill:none;stroke:#000000;stroke-width:1px;stroke-linecap:butt;stroke-linejoin:miter;stroke-opacity:1"
       d="M 50.785986,65.651241 50.33637,55.246154 c 0,0 -2.56987,-3.109763 -3.640777,-2.184466 -0.795856,0.687645 0.237134,2.521764 1.213592,2.912622 2.051539,0.821194 6.067962,-2.669903 6.067962,-2.669903 0,0 0.574116,-4.327443 -0.970874,-4.611651 -1.324326,-0.243616 -2.365404,2.063724 -2.184466,3.398059 0.27717,2.044003 2.549002,4.142219 4.61165,4.126213 1.431333,-0.01111 3.331007,-1.492066 3.15534,-2.912621 -0.124414,-1.006088 -1.780287,-1.942392 -2.669903,-1.456311 -3.986078,2.177972 -0.970874,13.592233 -0.970874,13.592233"
       id="path30"
       sodipodi:nodetypes="ccaacaaaaac" />
    <path
       style="fill:none;stroke:#000000;stroke-width:1px;stroke-linecap:butt;stroke-linejoin:miter;stroke-opacity:1"
       d="m 40.109682,66.710201 c 2.506855,-2.785395 2.646125,-2.785395 2.646125,-2.785395"
       id="path32" />
    <path
       style="fill:none;stroke:#000000;stroke-width:1px;stroke-linecap:butt;stroke-linejoin:miter;stroke-opacity:1"
       d="m 34.678163,60.721602 c 4.595901,-1.949776 4.595901,-2.228315 4.595901,-2.228315 l 0.13927,0.278539"
       id="path34" />
    <path
       style="fill:none;stroke:#000000;stroke-width:1px;stroke-linecap:butt;stroke-linejoin:miter;stroke-opacity:1"
       d="m 32.728387,53.897386 c 5.292249,-0.557079 5.292249,-0.557079 5.292249,-0.557079"
       id="path36" />
    <path
       style="fill:none;stroke:#000000;stroke-width:1px;stroke-linecap:butt;stroke-linejoin:miter;stroke-opacity:1"
       d="m 35.235242,46.51609 c 3.063934,2.924664 3.063934,2.924664 3.063934,2.924664"
       id="path38" />
    <path
       style="fill:none;stroke:#000000;stroke-width:1px;stroke-linecap:butt;stroke-linejoin:miter;stroke-opacity:1"
       d="m 40.388222,41.50238 c 1.114158,2.506855 1.114158,2.506855 1.114158,2.506855"
       id="path40" />
    <path
       style="fill:none;stroke:#000000;stroke-width:1px;stroke-linecap:butt;stroke-linejoin:miter;stroke-opacity:1"
       d="m 44.844853,35.653051 c 1.810507,5.01371 1.810507,5.01371 1.810507,5.01371"
       id="path42" />
    <path
       style="fill:none;stroke:#000000;stroke-width:1px;stroke-linecap:butt;stroke-linejoin:miter;stroke-opacity:1"
       d="m 51.251261,33.146196 c -0.13927,6.824217 -0.13927,6.824217 -0.13927,6.824217"
       id="path44" />
    <path
       style="fill:none;stroke:#000000;stroke-width:1px;stroke-linecap:butt;stroke-linejoin:miter;stroke-opacity:1"
       d="m 57.657668,41.22384 c 2.506855,-2.089046 2.506855,-1.949776 2.506855,-1.949776"
       id="path46" />
    <path
       style="fill:none;stroke:#000000;stroke-width:1px;stroke-linecap:butt;stroke-linejoin:miter;stroke-opacity:1"
       d="m 61.278681,44.566314 c 5.29225,-4.735171 4.874441,-3.760283 4.874441,-3.760283"
       id="path48" />
    <path
       style="fill:none;stroke:#000000;stroke-width:1px;stroke-linecap:butt;stroke-linejoin:miter;stroke-opacity:1"
       d="m 64.064076,50.694182 c 3.481743,-3.063934 3.899552,-3.342474 3.899552,-3.342474"
       id="path50" />
    <path
       style="fill:none;stroke:#000000;stroke-width:1px;stroke-linecap:butt;stroke-linejoin:miter;stroke-opacity:1"
       d="m 65.735313,54.872274 c 2.506855,0.139269 2.506855,0.139269 2.506855,0.139269"
       id="path52" />
    <path
       style="fill:none;stroke:#000000;stroke-width:1px;stroke-linecap:butt;stroke-linejoin:miter;stroke-opacity:1"
       d="m 65.456773,58.911096 c 6.684947,2.506855 6.684947,2.506855 6.684947,2.506855"
       id="path54" />
    <path
       style="fill:none;stroke:#000000;stroke-width:1px;stroke-linecap:butt;stroke-linejoin:miter;stroke-opacity:1"
       d="m 61.97503,62.671379 c 2.506855,3.621012 2.506855,3.621012 2.506855,3.621012"
       id="path56" />
    <path
       style="fill:none;stroke:#000000;stroke-width:1px;stroke-linecap:butt;stroke-linejoin:miter;stroke-opacity:1"
       d="m 48.202016,70.074029 h 9.751853"
       id="path68" />
    <path
       style="fill:none;stroke:#000000;stroke-width:1px;stroke-linecap:butt;stroke-linejoin:miter;stroke-opacity:1"
       d="M 47.784079,67.705722 58.093181,67.148473"
       id="path70" />
    <path
       style="fill:none;stroke:#000000;stroke-width:1px;stroke-linecap:butt;stroke-linejoin:miter;stroke-opacity:1"
       d="M 57.953869,70.074029 47.784079,67.705722"
       id="path76" />
    <path
       style="fill:none;stroke:#000000;stroke-width:1px;stroke-linecap:butt;stroke-linejoin:miter;stroke-opacity:1"
       d="M 48.058252,72.087379 58.093181,67.148473"
       id="path78" />
    <text
       xml:space="preserve"
       style="font-style:italic;font-variant:normal;font-weight:normal;font-stretch:normal;font-size:22.8556px;line-height:1.25;font-family:'Franklin Gothic Heavy';-inkscape-font-specification:'Franklin Gothic Heavy, Italic';text-align:center;text-anchor:middle;fill:#000000;fill-opacity:1;stroke:none;stroke-width:0.571388"
       x="181.82138"
       y="52.29174"
       id="text907"
       transform="scale(1.07468,0.93050954)"><tspan
         sodipodi:role="line"
         id="tspan905"
         x="181.82138"
         y="52.29174"
         style="font-style:italic;font-variant:normal;font-weight:normal;font-stretch:normal;font-family:'Franklin Gothic Heavy';-inkscape-font-specification:'Franklin Gothic Heavy, Italic';text-align:center;text-anchor:middle;fill:#225500;stroke-width:0.571388">LIGTH UP THE</tspan><tspan
         sodipodi:role="line"
         x="181.82138"
         y="80.861244"
         id="tspan909"
         style="font-style:italic;font-variant:normal;font-weight:normal;font-stretch:normal;font-family:'Franklin Gothic Heavy';-inkscape-font-specification:'Franklin Gothic Heavy, Italic';text-align:center;text-anchor:middle;fill:#225500;stroke-width:0.571388">ENVIRONMENT</tspan></text>
  </g>
</svg>
